<svg width="159" height="14" viewBox="0 0 159 14" fill="none" xmlns="http://www.w3.org/2000/svg">
<g clip-path="url(#clip0_416_32)">
<path d="M134.985 9.68627C136.458 9.68627 137.652 8.47059 137.652 6.98039C137.652 5.4902 136.458 4.27451 134.985 4.27451C133.511 4.27451 132.317 5.4902 132.317 6.98039C132.317 8.47059 133.511 9.68627 134.985 9.68627ZM134.985 14C131.082 14 127.937 10.8627 127.937 6.98039C127.937 3.13725 131.122 0 134.985 0C138.887 0 142.033 3.13725 142.033 7.01961C142.072 10.8627 138.887 14 134.985 14Z" fill="#1EAAE2"/>
<path d="M118.46 9.68627C119.933 9.68627 121.128 8.47059 121.128 6.98039C121.128 5.4902 119.933 4.27451 118.46 4.27451C116.987 4.27451 115.792 5.4902 115.792 6.98039C115.792 8.47059 116.987 9.68627 118.46 9.68627ZM118.46 14C114.558 14 111.412 10.8627 111.412 6.98039C111.412 3.13725 114.598 0 118.46 0C122.362 0 125.508 3.13725 125.508 7.01961C125.548 10.8627 122.362 14 118.46 14Z" fill="#6EC8C2"/>
<path d="M151.509 9.68627C152.983 9.68627 154.177 8.47059 154.177 6.98039C154.177 5.4902 152.983 4.27451 151.509 4.27451C150.036 4.27451 148.841 5.4902 148.841 6.98039C148.841 8.47059 150.036 9.68627 151.509 9.68627ZM151.509 14C147.607 14 144.461 10.8627 144.461 6.98039C144.461 3.13725 147.647 0 151.509 0C155.412 0 158.557 3.13725 158.557 7.01961C158.597 10.8627 155.412 14 151.509 14Z" fill="#0373B7"/>
<path fill-rule="evenodd" clip-rule="evenodd" d="M20.2278 13.5686C24.2893 13.5686 27.1562 10.7058 27.1562 6.98032C27.1562 3.25483 24.2893 0.39209 20.2278 0.39209C16.1265 0.39209 13.2994 3.25483 13.2994 6.98032C13.2994 10.7058 16.1663 13.5686 20.2278 13.5686ZM20.2278 3.88229C22.0196 3.88229 23.2938 5.33327 23.2938 6.98032C23.2938 8.62738 22.0196 10.0784 20.2278 10.0784C18.436 10.0784 17.1618 8.62738 17.1618 6.98032C17.1618 5.33327 18.436 3.88229 20.2278 3.88229ZM5.25604 10.3921C8.99898 10.3921 11.189 8.58819 11.189 5.49015C11.189 2.43132 9.0388 0.666619 5.41531 0.666619H0V13.3333H3.78276V10.3921H5.25604ZM5.3755 3.84309C6.57005 3.84309 7.3266 4.47054 7.3266 5.49015C7.3266 6.54897 6.60987 7.21564 5.33568 7.21564H3.78276V3.84309H5.3755ZM37.9868 13.3333L35.9561 9.99995H35.7968H33.7661V13.3333H29.9833V0.666619H35.7968C39.261 0.666619 41.4112 2.35289 41.4112 5.25485C41.4112 6.78427 40.7343 8.07838 39.5398 8.94113L42.2872 13.3333H37.9868ZM33.5272 6.66662H35.5181C36.5534 6.66662 37.3497 6.07838 37.3497 5.21564C37.3497 4.39211 36.5932 3.84309 35.5181 3.84309H33.5272V6.66662ZM51.2862 3.92152H55.1088V0.666619H43.6411V3.92152H47.4636V13.3333H51.2862V3.92152ZM62.4752 13.6078C60.3648 13.6078 58.2544 12.8627 57.0599 12.1568L56.9404 12.0784L58.7323 9.21562L58.8517 9.29405C60.0861 9.96072 61.4399 10.3921 62.4354 10.3921C63.2716 10.3921 63.7892 10.1176 63.7892 9.64699C63.7892 9.13719 62.9132 8.90189 61.8381 8.62738C59.887 8.1568 57.259 7.49013 57.259 4.43131C57.259 2.07836 59.3295 0.39209 62.2761 0.39209C63.829 0.39209 65.382 0.745031 67.134 1.52934L67.2534 1.56856L65.8598 4.47052L65.7403 4.39209C64.6254 3.84307 63.5503 3.56856 62.4354 3.56856C61.6788 3.56856 61.1612 3.84307 61.1612 4.31366C61.1612 4.82346 61.9974 5.01954 63.0725 5.25483L63.1024 5.26205C65.0508 5.73189 67.6914 6.36869 67.6914 9.45091C67.7711 11.9999 65.7005 13.6078 62.4752 13.6078ZM74.6597 13.3333V0.666619H70.8769V13.3333H74.6597ZM91.0649 6.98034C91.0649 10.8235 88.1979 13.3333 84.0568 13.3333H78.6415V0.666619H84.0568C88.1979 0.666619 91.0649 3.13721 91.0649 6.98034ZM87.083 6.98034C87.083 5.21564 85.769 3.99995 83.9772 3.99995H82.3844V10.0392H83.9772C85.769 9.99995 87.083 8.74505 87.083 6.98034ZM97.4757 5.49015V3.80387H103.648V0.666619H93.6531V13.2941H103.648V10.1568H97.4757V8.50976H102.772V5.49015H97.4757Z" fill="#3C465B"/>
</g>
<defs>
<clipPath id="clip0_416_32">
<rect width="158.597" height="14" fill="white"/>
</clipPath>
</defs>
</svg>
