<svg width="110" height="11" viewBox="0 0 110 11" fill="none" xmlns="http://www.w3.org/2000/svg">
<mask id="mask0_2682_8114" style="mask-type:luminance" maskUnits="userSpaceOnUse" x="0" y="0" width="110" height="10">
<path d="M110 0H0V9.6855H110V0Z" fill="white"/>
</mask>
<g mask="url(#mask0_2682_8114)">
<mask id="mask1_2682_8114" style="mask-type:luminance" maskUnits="userSpaceOnUse" x="0" y="0" width="110" height="10">
<path d="M109.722 0H0V9.6855H109.722V0Z" fill="white"/>
</mask>
<g mask="url(#mask1_2682_8114)">
<path d="M93.3853 6.70119C94.4041 6.70119 95.2308 5.86016 95.2308 4.8292C95.2308 3.79825 94.4041 2.95721 93.3853 2.95721C92.3657 2.95721 91.5398 3.79825 91.5398 4.8292C91.5398 5.86016 92.3657 6.70119 93.3853 6.70119ZM93.3853 9.6855C90.6852 9.6855 88.5098 7.51507 88.5098 4.8292C88.5098 2.17043 90.7132 0 93.3853 0C96.0845 0 98.2617 2.17043 98.2617 4.85633C98.2879 7.51507 96.0845 9.6855 93.3853 9.6855Z" fill="#1EAAE2"/>
<path d="M81.9531 6.70119C82.9721 6.70119 83.7988 5.86016 83.7988 4.8292C83.7988 3.79825 82.9721 2.95721 81.9531 2.95721C80.934 2.95721 80.1073 3.79825 80.1073 4.8292C80.1073 5.86016 80.934 6.70119 81.9531 6.70119ZM81.9531 9.6855C79.2536 9.6855 77.0771 7.51507 77.0771 4.8292C77.0771 2.17043 79.2813 0 81.9531 0C84.6523 0 86.8294 2.17043 86.8294 4.85633C86.8565 7.51507 84.6523 9.6855 81.9531 9.6855Z" fill="#6EC8C2"/>
<path d="M104.817 6.70119C105.837 6.70119 106.663 5.86016 106.663 4.8292C106.663 3.79825 105.837 2.95721 104.817 2.95721C103.798 2.95721 102.971 3.79825 102.971 4.8292C102.971 5.86016 103.798 6.70119 104.817 6.70119ZM104.817 9.6855C102.118 9.6855 99.9414 7.51507 99.9414 4.8292C99.9414 2.17043 102.146 0 104.817 0C107.517 0 109.693 2.17043 109.693 4.85633C109.721 7.51507 107.517 9.6855 104.817 9.6855Z" fill="#0373B7"/>
<path fill-rule="evenodd" clip-rule="evenodd" d="M13.9941 9.38729C16.8039 9.38729 18.7873 7.40675 18.7873 4.82938C18.7873 2.252 16.8039 0.271484 13.9941 0.271484C11.1567 0.271484 9.20082 2.252 9.20082 4.82938C9.20082 7.40675 11.1842 9.38729 13.9941 9.38729ZM13.9941 2.68608C15.2336 2.68608 16.1152 3.68991 16.1152 4.82938C16.1152 5.96886 15.2336 6.9727 13.9941 6.9727C12.7545 6.9727 11.873 5.96886 11.873 4.82938C11.873 3.68991 12.7545 2.68608 13.9941 2.68608ZM3.63625 7.18973C6.22571 7.18973 7.74082 5.94174 7.74082 3.79845C7.74082 1.68228 6.25325 0.46141 3.74644 0.46141H0V9.22449H2.617V7.18973H3.63625ZM3.7189 2.65897C4.54532 2.65897 5.06872 3.09305 5.06872 3.79845C5.06872 4.53096 4.57287 4.99218 3.69135 4.99218H2.617V2.65897H3.7189ZM26.2802 9.22449L24.8753 6.91843H24.7651H23.3602V9.22449H20.7431V0.46141H24.7651C27.1617 0.46141 28.6492 1.62801 28.6492 3.63566C28.6492 4.69375 28.181 5.58904 27.3545 6.18591L29.2553 9.22449H26.2802ZM23.1949 4.61235H24.5723C25.2885 4.61235 25.8394 4.2054 25.8394 3.60853C25.8394 3.0388 25.3161 2.65897 24.5723 2.65897H23.1949V4.61235ZM35.481 2.71323H38.1256V0.46141H30.192V2.71323H32.8364V9.22449H35.481V2.71323ZM43.2219 9.41446C41.7618 9.41446 40.3018 8.89898 39.4754 8.41059L39.3927 8.35635L40.6324 6.37581L40.715 6.43007C41.569 6.89129 42.5056 7.18973 43.1943 7.18973C43.7728 7.18973 44.1309 6.99983 44.1309 6.67424C44.1309 6.32155 43.5249 6.15877 42.7811 5.96886C41.4312 5.6433 39.6131 5.18208 39.6131 3.06591C39.6131 1.43808 41.0456 0.271484 43.0841 0.271484C44.1584 0.271484 45.2328 0.515657 46.4449 1.05826L46.5275 1.0854L45.5634 3.09304L45.4807 3.03878C44.7094 2.65896 43.9656 2.46905 43.1943 2.46905C42.6709 2.46905 42.3128 2.65896 42.3128 2.98452C42.3128 3.33721 42.8913 3.47286 43.6351 3.63565L43.6558 3.64064C45.0037 3.96569 46.8306 4.40624 46.8306 6.53859C46.8856 8.30204 45.4532 9.41446 43.2219 9.41446ZM51.6513 9.22449V0.46141H49.0344V9.22449H51.6513ZM63.0009 4.82939C63.0009 7.48819 61.0174 9.22449 58.1525 9.22449H54.4061V0.46141H58.1525C61.0174 0.46141 63.0009 2.17062 63.0009 4.82939ZM60.2461 4.82939C60.2461 3.60853 59.337 2.76748 58.0974 2.76748H56.9955V6.94558H58.0974C59.337 6.91843 60.2461 6.05026 60.2461 4.82939ZM67.436 3.79845V2.63184H71.7062V0.46141H64.7914V9.19742H71.7062V7.02695H67.436V5.88748H71.1001V3.79845H67.436Z" fill="#3C465B"/>
</g>
</g>
</svg>
