<svg width="130" height="12" viewBox="0 0 130 12" fill="none" xmlns="http://www.w3.org/2000/svg">
<g clip-path="url(#clip0_2579_7062)">
<mask id="mask0_2579_7062" style="mask-type:luminance" maskUnits="userSpaceOnUse" x="0" y="0" width="130" height="12">
<path d="M129.671 0H0V11.4465H129.671V0Z" fill="white"/>
</mask>
<g mask="url(#mask0_2579_7062)">
<path d="M110.365 7.91959C111.569 7.91959 112.546 6.92564 112.546 5.70724C112.546 4.48884 111.569 3.49488 110.365 3.49488C109.16 3.49488 108.184 4.48884 108.184 5.70724C108.184 6.92564 109.16 7.91959 110.365 7.91959ZM110.365 11.4465C107.174 11.4465 104.603 8.88145 104.603 5.70724C104.603 2.56505 107.207 0 110.365 0C113.555 0 116.128 2.56505 116.128 5.7393C116.159 8.88145 113.555 11.4465 110.365 11.4465Z" fill="#1EAAE2"/>
<path d="M96.8541 7.91959C98.0584 7.91959 99.0354 6.92564 99.0354 5.70724C99.0354 4.48884 98.0584 3.49488 96.8541 3.49488C95.6497 3.49488 94.6727 4.48884 94.6727 5.70724C94.6727 6.92564 95.6497 7.91959 96.8541 7.91959ZM96.8541 11.4465C93.6638 11.4465 91.0916 8.88145 91.0916 5.70724C91.0916 2.56505 93.6965 0 96.8541 0C100.044 0 102.617 2.56505 102.617 5.7393C102.649 8.88145 100.044 11.4465 96.8541 11.4465Z" fill="#6EC8C2"/>
<path d="M123.875 7.91959C125.08 7.91959 126.057 6.92564 126.057 5.70724C126.057 4.48884 125.08 3.49488 123.875 3.49488C122.671 3.49488 121.694 4.48884 121.694 5.70724C121.694 6.92564 122.671 7.91959 123.875 7.91959ZM123.875 11.4465C120.685 11.4465 118.113 8.88145 118.113 5.70724C118.113 2.56505 120.718 0 123.875 0C127.066 0 129.638 2.56505 129.638 5.7393C129.671 8.88145 127.066 11.4465 123.875 11.4465Z" fill="#0373B7"/>
<path fill-rule="evenodd" clip-rule="evenodd" d="M16.5385 11.0938C19.8592 11.0938 22.2032 8.75316 22.2032 5.70717C22.2032 2.66118 19.8592 0.320572 16.5385 0.320572C13.1852 0.320572 10.8737 2.66118 10.8737 5.70717C10.8737 8.75316 13.2177 11.0938 16.5385 11.0938ZM16.5385 3.17419C18.0034 3.17419 19.0452 4.36053 19.0452 5.70717C19.0452 7.05383 18.0034 8.24019 16.5385 8.24019C15.0735 8.24019 14.0317 7.05383 14.0317 5.70717C14.0317 4.36053 15.0735 3.17419 16.5385 3.17419ZM4.29739 8.49668C7.35766 8.49668 9.14824 7.02178 9.14824 4.4888C9.14824 1.98787 7.39021 0.54503 4.42761 0.54503H0V10.9014H3.09282V8.49668H4.29739ZM4.39506 3.14214C5.37174 3.14214 5.9903 3.65515 5.9903 4.4888C5.9903 5.3545 5.4043 5.89957 4.36251 5.89957H3.09282V3.14214H4.39506ZM31.0584 10.9014L29.3981 8.17605H29.2678H27.6075V10.9014H24.5146V0.54503H29.2678C32.1002 0.54503 33.8582 1.92374 33.8582 4.29641C33.8582 5.54688 33.3048 6.60496 32.3281 7.31035L34.5744 10.9014H31.0584ZM27.4122 5.45069H29.04C29.8864 5.45069 30.5375 4.96974 30.5375 4.26435C30.5375 3.59103 29.919 3.14214 29.04 3.14214H27.4122V5.45069ZM41.9321 3.20627H45.0575V0.54503H35.6814V3.20627H38.8067V10.9014H41.9321V3.20627ZM51.0804 11.1259C49.3549 11.1259 47.6294 10.5167 46.6528 9.93952L46.555 9.87541L48.0201 7.53478L48.1177 7.5989C49.127 8.14398 50.2339 8.49668 51.0478 8.49668C51.7315 8.49668 52.1547 8.27225 52.1547 7.88747C52.1547 7.47065 51.4385 7.27827 50.5595 7.05383C48.9642 6.66908 46.8155 6.124 46.8155 3.62308C46.8155 1.69928 48.5084 0.320572 50.9176 0.320572C52.1872 0.320572 53.457 0.60914 54.8894 1.2504L54.9871 1.28247L53.8476 3.65514L53.7499 3.59101C52.8384 3.14213 51.9594 2.91769 51.0478 2.91769C50.4292 2.91769 50.006 3.14213 50.006 3.52689C50.006 3.9437 50.6897 4.10402 51.5687 4.2964L51.5932 4.3023C53.1862 4.68645 55.3452 5.2071 55.3452 7.72715C55.4103 9.81123 53.7174 11.1259 51.0804 11.1259ZM61.0425 10.9014V0.54503H57.9497V10.9014H61.0425ZM74.4556 5.70719C74.4556 8.8494 72.1115 10.9014 68.7257 10.9014H64.2981V0.54503H68.7257C72.1115 0.54503 74.4556 2.56501 74.4556 5.70719ZM71.1999 5.70719C71.1999 4.26435 70.1256 3.27039 68.6606 3.27039H67.3583V8.20814H68.6606C70.1256 8.17605 71.1999 7.15003 71.1999 5.70719ZM79.6971 4.4888V3.11008H84.7437V0.54503H76.5717V10.8694H84.7437V8.3043H79.6971V6.95766H84.0274V4.4888H79.6971Z" fill="#3C465B"/>
</g>
</g>
<defs>
<clipPath id="clip0_2579_7062">
<rect width="130" height="11.4465" fill="white"/>
</clipPath>
</defs>
</svg>
